<?xml version="1.0" encoding="UTF-8"?>
<svg xmlns="http://www.w3.org/2000/svg" xmlns:xlink="http://www.w3.org/1999/xlink" width="3000" height="3000" viewBox="0 0 3000 3000">
<rect x="-300" y="-300" width="3600" height="3600" fill="rgb(100%, 100%, 100%)" fill-opacity="1"/>
<path fill-rule="nonzero" fill="rgb(0%, 0%, 0%)" fill-opacity="1" d="M 1417.820312 435.738281 L 1405.109375 435.859375 C 1356.601562 436.519531 1304.679688 443.640625 1249.351562 457.230469 C 1236.289062 460.421875 1224.640625 463.671875 1214.429688 466.980469 L 1020.179688 533.949219 C 1002.140625 538.398438 985.203125 542.058594 969.371094 544.910156 C 956.875 547.5 938.808594 549.820312 915.171875 551.871094 L 834.246094 541.390625 L 852.078125 557.050781 C 864.78125 567.070312 879.125 576.25 895.105469 584.589844 L 920.304688 596.460938 C 937.921875 603.960938 957.175781 610.609375 978.066406 616.421875 C 1020.820312 628.160156 1068.179688 636.28125 1120.171875 640.789062 C 1132.660156 641.910156 1147.601562 642.46875 1164.988281 642.46875 C 1170.070312 642.46875 1175.351562 642.421875 1180.839844 642.320312 C 1320.710938 630.109375 1414.859375 624 1463.269531 624 C 1468.101562 624 1472.46875 624.058594 1476.378906 624.179688 C 1578.449219 628.148438 1653.808594 636.28125 1702.449219 648.570312 C 1794.730469 671.539062 1873.628906 697.621094 1939.160156 726.789062 C 1975.429688 742.210938 2011.859375 759.238281 2048.449219 777.871094 C 2066.550781 785.179688 2121.800781 816.75 2214.199219 872.570312 C 2090.441406 709.679688 1986.808594 610.191406 1903.308594 574.101562 C 1878.5 559.910156 1851.628906 546.519531 1822.710938 533.898438 C 1810.808594 526.621094 1762.808594 509.460938 1678.699219 482.429688 C 1663.730469 476.320312 1606.480469 462.691406 1506.96875 441.550781 C 1483.511719 438.121094 1453.789062 436.191406 1417.820312 435.738281 Z M 1580.789062 1179.5 L 1576.5 1183.070312 C 1570.449219 1187.679688 1563.140625 1191.558594 1554.550781 1194.71875 C 1548.101562 1197.601562 1536.109375 1200.320312 1518.570312 1202.878906 C 1513.230469 1203.601562 1505.519531 1204 1495.441406 1204.058594 C 1456.371094 1203.011719 1432.039062 1202.480469 1422.429688 1202.488281 C 1420.050781 1202.488281 1418.570312 1202.519531 1418 1202.589844 C 1397.820312 1203.859375 1384.53125 1205.289062 1378.140625 1206.851562 C 1360.320312 1211 1345.378906 1215.5 1333.308594 1220.339844 C 1311.261719 1229.710938 1296.601562 1237.238281 1289.320312 1242.910156 C 1289.230469 1243.480469 1289.808594 1243.761719 1291.058594 1243.761719 C 1291.410156 1243.761719 1291.800781 1243.738281 1292.25 1243.699219 C 1304.390625 1240.140625 1314.871094 1238.109375 1323.679688 1237.621094 C 1327.101562 1237.371094 1330.589844 1237.238281 1334.160156 1237.238281 C 1339.449219 1237.238281 1344.910156 1237.519531 1350.539062 1238.058594 C 1355.269531 1238.578125 1363.238281 1240.230469 1374.46875 1243.011719 C 1405.929688 1253.769531 1426.121094 1259.761719 1435.03125 1260.980469 C 1445.449219 1262.738281 1455.058594 1263.621094 1463.851562 1263.621094 C 1472.710938 1263.621094 1480.738281 1262.730469 1487.941406 1260.941406 C 1509.660156 1255.921875 1531.289062 1244.558594 1552.828125 1226.839844 C 1562.289062 1218.910156 1571.609375 1203.121094 1580.800781 1179.5 Z M 1658.109375 779.289062 L 1673.839844 804.769531 C 1714.578125 869.699219 1770.941406 927.460938 1842.921875 978.039062 C 1863.511719 991.308594 1886.789062 1002.75 1912.769531 1012.371094 C 1929.121094 1019.410156 1993.859375 1037.640625 2106.980469 1067.070312 C 2149.878906 1082.648438 2179.949219 1095.5 2197.21875 1105.601562 C 2223.410156 1119.269531 2251.070312 1137.96875 2280.230469 1161.691406 C 2287.058594 1166.058594 2309.75 1186.679688 2348.328125 1223.570312 C 2364.019531 1239.199219 2380.078125 1256.089844 2396.511719 1274.238281 C 2380.230469 1206.078125 2355.628906 1144.679688 2322.710938 1090.03125 C 2289.789062 1035.378906 2248.558594 987.488281 2199.019531 946.359375 C 2166.480469 918.179688 2118.988281 888.210938 2056.539062 856.429688 C 2011.738281 836.179688 1977.910156 823.839844 1955.070312 819.390625 C 1937.148438 813.988281 1876.75 808.058594 1773.851562 801.609375 C 1746.679688 797.28125 1723.898438 792.480469 1705.519531 787.210938 Z M 1377.238281 1054.929688 L 1375.058594 1060.898438 C 1371.730469 1068.871094 1366.738281 1076.851562 1360.089844 1084.839844 C 1355.390625 1091.351562 1345.140625 1100.859375 1329.339844 1113.351562 C 1324.511719 1117.101562 1317.148438 1121.871094 1307.261719 1127.671875 C 1258.53125 1154.140625 1232.859375 1168.351562 1230.25 1170.289062 C 1211.121094 1183.039062 1198.859375 1192 1193.46875 1197.171875 C 1178.308594 1211.390625 1166.160156 1224.320312 1157.039062 1235.949219 C 1140.691406 1257.71875 1130.550781 1273.46875 1126.628906 1283.191406 C 1126.730469 1283.46875 1126.941406 1283.609375 1127.261719 1283.609375 C 1127.820312 1283.609375 1128.71875 1283.179688 1129.949219 1282.300781 C 1139.871094 1271.878906 1149.019531 1263.929688 1157.410156 1258.429688 C 1165.398438 1252.988281 1174.289062 1248.039062 1184.078125 1243.578125 C 1189.019531 1241.390625 1197.808594 1238.480469 1210.429688 1234.828125 C 1247.511719 1227.5 1270.78125 1221.910156 1280.230469 1218.039062 C 1302.808594 1209.609375 1320.160156 1199.558594 1332.261719 1187.890625 C 1350.769531 1170.601562 1365.570312 1147.109375 1376.679688 1117.429688 C 1381.460938 1104.238281 1381.648438 1083.410156 1377.25 1054.929688 Z M 834.371094 1448.429688 L 834.597656 1448.488281 L 834.496094 1448.589844 C 834.480469 1448.550781 834.441406 1448.5 834.367188 1448.429688 Z M 823.875 992.269531 C 823.785156 992.269531 823.703125 992.308594 823.648438 992.371094 C 823.59375 992.441406 823.574219 992.539062 823.597656 992.621094 C 846.644531 1080.101562 868.195312 1168.78125 863.605469 1267.839844 C 860.945312 1325.238281 849.507812 1386.070312 834.089844 1448.359375 C 834.085938 1448.378906 834.082031 1448.410156 834.082031 1448.429688 C 834.082031 1448.488281 834.101562 1448.558594 834.144531 1448.609375 C 834.152344 1448.621094 834.160156 1448.621094 834.167969 1448.628906 L 834.164062 1448.628906 C 834.210938 1448.679688 834.265625 1448.710938 834.332031 1448.710938 C 834.34375 1448.710938 834.355469 1448.71875 834.367188 1448.71875 C 834.382812 1448.71875 834.398438 1448.710938 834.414062 1448.710938 L 834.417969 1448.710938 L 834.414062 1448.710938 C 834.472656 1448.699219 834.527344 1448.679688 834.570312 1448.628906 C 853.285156 1430.410156 871.890625 1410.789062 888.972656 1389.539062 C 913.867188 1358.570312 935.558594 1324.101562 953.914062 1288.570312 C 953.9375 1288.53125 953.945312 1288.480469 953.945312 1288.441406 L 953.945312 1288.398438 C 950.292969 1260.128906 943.222656 1231.289062 933.339844 1202.601562 C 908.941406 1131.75 867.546875 1062.191406 824.117188 992.398438 C 824.066406 992.320312 823.972656 992.269531 823.875 992.269531 Z M 853.910156 1543.828125 L 846.980469 1595.039062 C 840.375 1600.539062 835.394531 1604.949219 832.039062 1608.28125 L 804.003906 1637.839844 C 802.808594 1638.949219 802.066406 1639.519531 801.78125 1639.53125 C 801.769531 1639.53125 801.757812 1639.53125 801.746094 1639.53125 C 800.316406 1639.53125 799.699219 1637.171875 799.902344 1632.449219 C 800.097656 1626.519531 800.8125 1618.96875 802.050781 1609.800781 C 805.136719 1589.738281 807.847656 1578.699219 810.183594 1576.679688 C 811.484375 1575.019531 813.089844 1573.460938 815.003906 1571.988281 Z M 1920.730469 1130.839844 L 1927.890625 1155.28125 C 1946.679688 1217.980469 1979.339844 1283.351562 2025.890625 1351.390625 C 2040.238281 1370.191406 2064.96875 1395.429688 2100.089844 1427.109375 C 2108.351562 1436.230469 2157.960938 1472.878906 2248.921875 1537.058594 C 2268.261719 1553.371094 2289.191406 1574.78125 2311.699219 1601.269531 C 2343.140625 1640.410156 2380.320312 1711.050781 2423.230469 1813.179688 C 2430.101562 1749.121094 2432.101562 1695.898438 2429.230469 1653.488281 C 2430.78125 1639.160156 2423.238281 1601.75 2406.601562 1541.269531 C 2376.210938 1436.109375 2328.28125 1358.460938 2262.800781 1308.339844 C 2219.621094 1275.769531 2191.101562 1256.871094 2177.25 1251.628906 C 2138.480469 1230.980469 2078.769531 1202.71875 1998.109375 1166.839844 C 1988.039062 1162.121094 1973.941406 1153.121094 1955.808594 1139.839844 Z M 745.984375 574.738281 L 750.824219 610.839844 C 762.59375 700.980469 801.644531 767.601562 867.972656 810.699219 C 905.199219 830.269531 1007.308594 844.019531 1174.308594 851.941406 C 1223.488281 864.019531 1258.96875 875.300781 1280.738281 885.769531 C 1420.109375 951.300781 1533.230469 1035.910156 1620.109375 1139.589844 C 1689.558594 1221.289062 1732.089844 1279.410156 1747.679688 1313.929688 C 1775.101562 1362.359375 1799.238281 1415.011719 1820.109375 1471.871094 C 1840.96875 1528.730469 1858.550781 1589.820312 1872.851562 1655.109375 L 1891.851562 1756.21875 C 1902.871094 1825.730469 1910.621094 1899.460938 1915.089844 1977.410156 C 1965.339844 1800.210938 1984.441406 1636 1972.378906 1484.789062 L 1957.5 1373.808594 L 1930.929688 1267.710938 L 1892.671875 1166.480469 L 1842.730469 1070.121094 C 1791.328125 979.921875 1705.28125 886.609375 1584.570312 790.191406 C 1527.210938 741.609375 1444.558594 707.160156 1336.621094 686.859375 L 1274.609375 678.421875 L 977.488281 680.429688 L 948.429688 674.660156 C 870.582031 650.769531 803.101562 617.460938 745.988281 574.738281 Z M 1172.808594 1273.28125 L 1156.269531 1294.058594 C 1116.859375 1350.679688 1115.109375 1417.109375 1150.988281 1493.328125 C 1162.859375 1513.960938 1185.179688 1536.96875 1217.96875 1562.371094 C 1288.859375 1600.648438 1347.941406 1637.371094 1395.210938 1672.519531 C 1423.449219 1696.929688 1445.089844 1721.570312 1460.128906 1746.441406 C 1472.078125 1765.289062 1483.660156 1787.28125 1494.859375 1812.398438 C 1502.890625 1830.75 1509.238281 1850.261719 1513.898438 1870.910156 L 1519.640625 1902.75 C 1528.570312 1968.148438 1522.371094 2043.894531 1501.019531 2129.980469 C 1513.621094 2117.257812 1525.378906 2104.328125 1536.269531 2091.1875 C 1572.089844 2044.632812 1594.011719 2010.492188 1602.050781 1988.761719 C 1620.328125 1949.46875 1635.929688 1900.109375 1648.839844 1840.691406 C 1653.078125 1816.628906 1654.441406 1795.71875 1652.921875 1777.949219 C 1647.328125 1733.929688 1636.640625 1693.828125 1620.859375 1657.648438 C 1605.070312 1621.46875 1584.191406 1589.210938 1558.210938 1560.859375 C 1525.839844 1528.121094 1499.890625 1505.96875 1480.371094 1494.421875 C 1471.179688 1487.300781 1450.820312 1477.019531 1419.308594 1463.601562 C 1407.429688 1457.558594 1359.089844 1445.890625 1274.269531 1428.601562 C 1257.140625 1422.710938 1242.539062 1414.710938 1230.46875 1404.621094 C 1218.589844 1397.171875 1204.589844 1379.019531 1188.480469 1350.171875 C 1179.128906 1327.441406 1174.210938 1313.109375 1173.730469 1307.191406 Z M 1037.109375 922.601562 L 1036.988281 922.621094 C 1040.570312 995.238281 1038.570312 1050.640625 1030.96875 1088.851562 C 1023.269531 1140.140625 1005.089844 1198.179688 976.441406 1262.949219 C 957.996094 1306.648438 928.261719 1354.269531 887.238281 1405.808594 C 875.265625 1423.300781 825.632812 1471.308594 738.34375 1549.839844 C 724.113281 1564.199219 714.367188 1576.398438 709.101562 1586.449219 C 693.046875 1615.140625 699.453125 1647.929688 728.328125 1684.820312 C 658.910156 1784.890625 616.59375 1850.941406 601.382812 1882.980469 C 583.53125 1913.679688 572.636719 1946.941406 568.699219 1982.75 C 568.132812 2012.46875 579.800781 2034.648438 603.703125 2049.300781 C 630.472656 2066.035156 677.84375 2079.484375 745.816406 2089.648438 C 733.605469 2044.1875 733.09375 2014.402344 744.285156 2000.289062 C 747.777344 1996.191406 753.277344 1994.140625 760.78125 1994.140625 C 772.496094 1994.140625 789.101562 1999.128906 810.59375 2009.121094 C 800.71875 1965.058594 795.472656 1932.859375 794.859375 1912.53125 C 794.316406 1894.449219 799.390625 1876.019531 810.082031 1857.25 C 816.152344 1894.5 828.1875 1924.609375 846.191406 1947.558594 C 845.519531 1868.230469 851.328125 1823.238281 863.617188 1812.589844 C 868.8125 1805.410156 875.054688 1800.039062 882.34375 1796.460938 C 916.585938 1785.519531 937.105469 1776.628906 943.894531 1769.800781 C 954.714844 1763 976.253906 1742.46875 1008.511719 1708.210938 C 982.566406 1769.710938 966.871094 1811.441406 961.421875 1833.421875 C 958.558594 1844.089844 957.160156 1853.910156 957.238281 1862.859375 L 962.585938 1905.710938 C 962.496094 1912.410156 959.855469 1922.089844 954.671875 1934.769531 C 952.074219 1941.898438 943.433594 1958.691406 928.753906 1985.148438 L 906.792969 1947.921875 C 905.191406 2026.757812 903.246094 2066.175781 900.960938 2066.175781 C 900.933594 2066.175781 900.90625 2066.171875 900.878906 2066.160156 C 900.609375 2068.503906 898.253906 2071.164062 893.816406 2074.140625 L 866.496094 2042.308594 C 871.039062 2072.5625 862.402344 2100.550781 840.578125 2126.269531 C 871.6875 2141.339844 900.015625 2148.875 925.5625 2148.871094 C 932.769531 2148.871094 939.753906 2148.273438 946.515625 2147.074219 C 961.699219 2145.277344 988.332031 2134.671875 1026.410156 2115.253906 C 1000.179688 2082.351562 991.875 2053.714844 1001.511719 2029.339844 C 1004.429688 2020.742188 1008.75 2011.703125 1014.46875 2002.226562 C 1051.148438 1947.140625 1071.058594 1914.179688 1074.179688 1903.359375 C 1078.648438 1898.578125 1090.640625 1858.289062 1110.140625 1782.488281 C 1115.910156 1765.179688 1122.601562 1750.941406 1130.191406 1739.769531 C 1145.679688 1709.160156 1196.179688 1681.820312 1281.710938 1657.71875 C 1267.980469 1632.371094 1221.769531 1613.660156 1143.070312 1601.589844 C 1102.550781 1572.578125 1077.78125 1541.769531 1068.75 1509.171875 C 1063.390625 1489.621094 1062.410156 1467.898438 1065.808594 1444.03125 C 1066.628906 1435.851562 1069.570312 1420.648438 1074.640625 1398.429688 C 1097.109375 1314.128906 1109.53125 1262.898438 1111.921875 1244.730469 C 1118.269531 1205.730469 1120.410156 1175.648438 1118.339844 1154.480469 C 1113.910156 1087.429688 1086.828125 1010.128906 1037.109375 922.601562 Z M 1261.871094 1244.578125 L 1256.390625 1254.570312 C 1253.46875 1261.371094 1252.011719 1268.441406 1252.011719 1275.78125 C 1254.570312 1294.609375 1257.859375 1306.238281 1261.878906 1310.660156 C 1269.671875 1327.039062 1285.25 1344.371094 1308.621094 1362.679688 C 1318.230469 1369.859375 1336.929688 1380.160156 1364.71875 1393.578125 L 1508.679688 1442.839844 C 1540.578125 1457.480469 1573.460938 1478.671875 1607.339844 1506.410156 C 1650.101562 1546.769531 1679.171875 1595.859375 1694.550781 1653.679688 C 1700.78125 1678.339844 1703.140625 1712.441406 1701.640625 1756.011719 C 1695.679688 1846.011719 1688.460938 1907.949219 1679.980469 1941.839844 C 1675.371094 1964.46875 1667.878906 1989.171875 1657.5 2015.914062 C 1597.03125 2158.492188 1564.550781 2230.058594 1560.070312 2230.617188 C 1558.449219 2233.773438 1558.070312 2236.382812 1558.910156 2238.453125 C 1571.820312 2235.800781 1602.019531 2213.617188 1649.519531 2171.902344 C 1686.589844 2135.910156 1720.078125 2091.832031 1750 2039.671875 C 1786.769531 1970.148438 1806.269531 1927.261719 1808.53125 1910.988281 C 1828.191406 1852.628906 1839.46875 1797.488281 1842.351562 1745.570312 C 1845.238281 1693.640625 1839.738281 1644.941406 1825.851562 1599.460938 C 1811.75 1554.070312 1794.121094 1513.910156 1772.949219 1478.980469 C 1762.371094 1461.511719 1750.898438 1445.339844 1738.550781 1430.488281 L 1719.359375 1409.179688 C 1689.339844 1379.25 1662.890625 1360.210938 1640.011719 1352.058594 C 1626.128906 1344.660156 1604.890625 1337.78125 1576.289062 1331.429688 C 1531.03125 1323.980469 1479.421875 1318.160156 1421.460938 1314 L 1400.210938 1308.859375 C 1369.359375 1302.308594 1323.25 1280.878906 1261.871094 1244.578125 Z M 2047.308594 1461.789062 L 2038.488281 1477.230469 C 2033.140625 1488.238281 2028.859375 1500.660156 2025.648438 1514.5 C 2022.449219 1528.328125 2020.308594 1543.578125 2019.25 1560.25 L 2018.449219 1586.308594 C 2018.460938 1604.390625 2019.53125 1623.878906 2021.679688 1644.789062 C 2023.371094 1668.421875 2027.039062 1688.019531 2032.699219 1703.609375 C 2038.429688 1721.261719 2046.261719 1739.03125 2056.199219 1756.929688 L 2155.621094 1893.691406 L 2161.738281 1903.738281 C 2177.660156 1930.601562 2190.441406 1958.050781 2200.058594 1986.070312 C 2209.75 2010.609375 2215.921875 2044.789062 2218.589844 2088.605469 C 2219.519531 2103.527344 2219.660156 2122.839844 2219.011719 2146.535156 L 2212.308594 2247.746094 C 2236.429688 2224.261719 2252.960938 2202.894531 2261.890625 2183.636719 C 2274.28125 2161.179688 2286.019531 2134.433594 2297.089844 2103.394531 L 2305.359375 2076.332031 C 2310.410156 2058.863281 2314.570312 2042.546875 2317.839844 2027.375 C 2324.378906 1997.03125 2327.339844 1971.28125 2326.710938 1950.128906 L 2325.570312 1935.121094 C 2321.75 1913.980469 2319.140625 1901.640625 2317.761719 1898.101562 C 2309.988281 1868.238281 2293.039062 1833.441406 2266.890625 1793.710938 C 2258.589844 1779.558594 2217.699219 1728.621094 2144.230469 1640.871094 C 2136.761719 1630.570312 2131.859375 1623.390625 2129.519531 1619.339844 C 2098.660156 1569.609375 2071.261719 1517.089844 2047.308594 1461.789062 Z M 1328.078125 1723.089844 L 1341.300781 1757.601562 C 1356.78125 1802.820312 1363.710938 1844.921875 1362.078125 1883.890625 C 1362.28125 1919.289062 1350.269531 1958.71875 1326.058594 2002.167969 C 1310.941406 2030.628906 1291.589844 2058.035156 1268.011719 2084.390625 C 1149.058594 2195.101562 1078.621094 2266.570312 1056.671875 2298.796875 C 1006.730469 2368.425781 978 2410.578125 970.492188 2425.261719 C 955.617188 2450.144531 947.230469 2467.953125 945.324219 2478.6875 L 1000.640625 2439.910156 C 1163.28125 2349.957031 1253.949219 2297.320312 1272.660156 2282 C 1326.050781 2242.179688 1357.96875 2215.167969 1368.429688 2200.957031 C 1382.929688 2188.484375 1401.828125 2159.5625 1425.140625 2114.191406 C 1430.691406 2106.015625 1440.769531 2081.453125 1455.378906 2040.511719 C 1460.449219 2024.128906 1464.429688 2007.742188 1467.320312 1991.351562 C 1470.128906 1983.160156 1472 1958.558594 1472.921875 1917.539062 L 1467.949219 1892.988281 C 1455.898438 1854.171875 1447.160156 1831.710938 1441.730469 1825.621094 C 1434.019531 1811.699219 1425.050781 1798.480469 1414.820312 1785.941406 C 1404.601562 1773.421875 1393.109375 1761.589844 1380.371094 1750.460938 L 1360.320312 1734.28125 Z M 1328.078125 1723.089844 "/>
</svg>
